<svg xmlns="http://www.w3.org/2000/svg" viewBox="0 0 240 240" role="img" aria-labelledby="title desc">
  <title id="title">Sarah Bello portrait illustration</title>
  <desc id="desc">Professional testimonial avatar illustration.</desc>
  <defs>
    <linearGradient id="bg" x1="28" x2="212" y1="20" y2="220" gradientUnits="userSpaceOnUse">
      <stop stop-color="#f59e0b"/>
      <stop offset="1" stop-color="#0f172a"/>
    </linearGradient>
  </defs>
  <rect width="240" height="240" rx="56" fill="url(#bg)"/>
  <circle cx="120" cy="96" r="43" fill="#8b4a2f"/>
  <path fill="#1f2937" d="M74 107c-10-45 15-79 50-78 31 1 55 26 48 78-14-22-31-33-52-33s-34 11-46 33Z"/>
  <path fill="#fff7ed" d="M48 208c9-48 36-74 72-74s63 26 72 74H48Z"/>
  <path fill="#f59e0b" d="M78 208c5-31 19-48 42-48s37 17 42 48H78Z"/>
  <circle cx="104" cy="97" r="4" fill="#111827"/>
  <circle cx="136" cy="97" r="4" fill="#111827"/>
  <path d="M105 119c11 9 22 9 33 0" stroke="#351b12" stroke-width="5" stroke-linecap="round" fill="none"/>
</svg>
